Coordinates
version=1
nRows=7
nColumns=40
inDegrees=yes

Units are S.I. units (second, meters, Newtons, ...)
Angles are in degrees.

endheader
time	pelvis_tilt	pelvis_list	pelvis_rotation	pelvis_tx	pelvis_ty	pelvis_tz	hip_flexion_r	hip_adduction_r	hip_rotation_r	knee_angle_r	knee_angle_r_beta	ankle_angle_r	subtalar_angle_r	mtp_angle_r	hip_flexion_l	hip_adduction_l	hip_rotation_l	knee_angle_l	knee_angle_l_beta	ankle_angle_l	subtalar_angle_l	mtp_angle_l	lumbar_extension	lumbar_bending	lumbar_rotation	arm_flex_r	arm_add_r	arm_rot_r	elbow_flex_r	pro_sup_r	wrist_flex_r	wrist_dev_r	arm_flex_l	arm_add_l	arm_rot_l	elbow_flex_l	pro_sup_l	wrist_flex_l	wrist_dev_l
     14.71800000	     -3.69059883	     -4.11360682	      5.14580825	      1.02239586	      0.93231811	      0.50675980	      7.47938205	      3.08690450	    -15.33337610	     13.51752320	     13.51752320	     11.65145302	      0.02885882	     -4.02089077	     31.63514412	     -9.15519422	      1.40979818	     43.18980329	     43.18980329	     10.39879204	    -17.87768833	     11.14280726	    -10.51467982	      4.96456791	      1.61201962	     23.57773690	    -21.77218070	     -8.89803727	     74.24753141	     45.06313931	      0.00000000	      0.00000000	     -3.58516930	     -6.77680960	     -2.18210864	     29.12430741	     45.67562797	      0.00000000	      0.00000000
     14.73100000	     -3.98891402	     -4.01347283	      5.46280266	      1.02066580	      0.93196789	      0.50597383	      7.35542390	      2.97688529	    -15.46935839	     13.17829093	     13.17829093	     11.72727909	     -0.07117131	     -4.06845980	     31.93668969	     -8.51075649	      1.79990900	     39.64058901	     39.64058901	     10.29366730	    -16.78676191	     11.35240594	    -10.40748102	      4.87745314	      1.74739683	     24.71238247	    -21.90598809	     -9.02546907	     74.86487067	     45.05456609	      0.00000000	      0.00000000	     -3.72202429	     -6.56008551	     -2.16871581	     28.99507757	     45.67361662	      0.00000000	      0.00000000
     14.74400000	     -4.11749019	     -3.92762004	      5.78822467	      1.01914597	      0.93183875	      0.50515273	      6.98759387	      2.89553580	    -15.73525317	     12.75215600	     12.75215600	     11.78770227	      0.05592712	     -4.22626525	     31.91198807	     -7.92749442	      2.15766830	     36.01563242	     36.01563242	     10.03559896	    -15.40677996	     11.08587006	    -10.52307860	      4.83114452	      1.66989966	     25.82117062	    -21.66536585	     -9.19253342	     75.79387563	     45.03868435	      0.00000000	      0.00000000	     -3.87221735	     -6.45434688	     -2.21404302	     28.78815944	     45.68224682	      0.00000000	      0.00000000
     14.75700000	     -4.27883961	     -3.94646865	      6.08735141	      1.01773461	      0.93141372	      0.50432230	      6.65397347	      2.89742322	    -16.19692036	     12.30860003	     12.30860003	     11.68193498	      0.48763129	     -5.05522142	     31.81842184	     -7.51979565	      2.39284096	     32.33662969	     32.33662969	      8.61871384	    -14.07246392	      7.66872236	    -10.58176729	      4.88222426	      1.87770579	     26.57485019	    -21.52298754	     -9.92625052	     77.14084530	     45.05418725	      0.00000000	      0.00000000	     -3.80387621	     -6.22417843	     -2.87097301	     28.54370385	     45.80437117	      0.00000000	      0.00000000
     14.77000000	     -4.48048947	     -3.92227789	      6.34168058	      1.01635521	      0.93098789	      0.50350708	      6.44728340	      2.86197336	    -16.35764296	     12.04902833	     12.04902833	     11.81208765	      0.49876123	     -5.10419751	     31.89362550	     -7.08690256	      2.57424735	     29.27204774	     29.27204774	      8.65344321	    -12.26362526	      7.94662030	    -10.56196069	      4.84291426	      1.95259199	     27.55117892	    -21.39774081	     -9.97516601	     77.75359387	     45.04300428	      0.00000000	      0.00000000	     -3.83935730	     -6.15912992	     -2.89561430	     28.45928353	     45.80921868	      0.00000000	      0.00000000
     14.78300000	     -4.60893352	     -3.95161055	      6.56771143	      1.01516205	      0.93057872	      0.50271463	      6.13622664	      2.89278031	    -16.59960500	     11.75042385	     11.75042385	     11.95297781	      0.69177691	     -5.18825182	     31.91907593	     -6.78281128	      2.56688828	     26.60038353	     26.60038353	      8.72476333	    -10.45834333	      8.15895441	    -10.60727392	      4.85114451	      1.97153901	     28.48753559	    -21.12635682	    -10.04494119	     78.45075655	     45.02983728	      0.00000000	      0.00000000	     -3.83908813	     -6.14184034	     -2.95053730	     28.38195381	     45.81964058	      0.00000000	      0.00000000
     14.79600000	     -4.71396135	     -4.00907596	      6.76188731	      1.01418285	      0.93013591	      0.50189956	      5.78627735	      2.95541144	    -16.85049756	     11.45278861	     11.45278861	     12.12289059	      0.96456077	     -5.28803608	     31.97416312	     -6.55055564	      2.38550929	     24.42078276	     24.42078276	      8.81198052	     -8.90175377	      8.36009273	    -10.63742726	      4.87515658	      2.01401849	     29.33478969	    -20.80186034	    -10.11789226	     79.12449780	     45.01736286	      0.00000000	      0.00000000	     -3.80958471	     -6.14682532	     -3.03284059	     28.32900599	     45.83489344	      0.00000000	      0.00000000
